<?xml version="1.0" encoding="utf-8"?>
<!-- Generator: Adobe Illustrator 21.0.0, SVG Export Plug-In . SVG Version: 6.00 Build 0)  -->
<svg version="1.1" xmlns="http://www.w3.org/2000/svg" xmlns:xlink="http://www.w3.org/1999/xlink" x="0px" y="0px"
	 viewBox="0 0 1366 768" style="enable-background:new 0 0 1366 768;" xml:space="preserve">
<style type="text/css">
	.st0{display:none;}
	.st1{display:inline;fill:#BC0C0C;}
</style>
<g id="Layer_3" class="st0">
	<path class="st1" d="M449,499h263c6.6,0,12-5.4,12-12V224c0-6.6-5.4-12-12-12H449c-6.6,0-12,5.4-12,12v263
		C437,493.6,442.4,499,449,499z"/>
</g>
<g id="Layer_2">
	<g>
		<path d="M696.6,228H468.4c-6.8,0-12.4,5.6-12.4,12.4v228.1c0,6.8,5.6,12.4,12.4,12.4h228.1c6.8,0,12.4-5.6,12.4-12.4V240.4
			C709,233.6,703.4,228,696.6,228z M587.1,312.9h-39.9v114.4h-31.6V312.9h-39.7v-25.7h111.3V312.9z M689.4,427.3H606v-140h31.5
			v114.5h51.9V427.3z"/>
	</g>
</g>
</svg>
